<?xml version="1.0" encoding="utf-8" standalone="no"?>
<!DOCTYPE svg PUBLIC "-//W3C//DTD SVG 1.1//EN"
  "http://www.w3.org/Graphics/SVG/1.1/DTD/svg11.dtd">
<svg xmlns:xlink="http://www.w3.org/1999/xlink" width="523.45pt" height="254.8085pt" viewBox="0 0 523.45 254.8085" xmlns="http://www.w3.org/2000/svg" version="1.1">
 <metadata>
  <rdf:RDF xmlns:dc="http://purl.org/dc/elements/1.1/" xmlns:cc="http://creativecommons.org/ns#" xmlns:rdf="http://www.w3.org/1999/02/22-rdf-syntax-ns#">
   <cc:Work>
    <dc:type rdf:resource="http://purl.org/dc/dcmitype/StillImage"/>
    <dc:format>image/svg+xml</dc:format>
    <dc:creator>
     <cc:Agent>
      <dc:title>Matplotlib v3.10.8, https://matplotlib.org/</dc:title>
     </cc:Agent>
    </dc:creator>
   </cc:Work>
  </rdf:RDF>
 </metadata>
 <defs>
  <style type="text/css">*{stroke-linejoin: round; stroke-linecap: butt}</style>
 </defs>
 <g id="figure_1">
  <g id="patch_1">
   <path d="M 0 254.8085 
L 523.45 254.8085 
L 523.45 0 
L 0 0 
z
" style="fill: #ffffff"/>
  </g>
  <g id="axes_1">
   <g id="patch_2">
    <path d="M 36.73 221.976 
L 256.693303 221.976 
L 256.693303 30.456 
L 36.73 30.456 
z
" style="fill: #ffffff"/>
   </g>
   <g id="matplotlib.axis_1">
    <g id="xtick_1">
     <g id="line2d_1">
      <defs>
       <path id="mf40864cbf1" d="M 0 0 
L 0 3.5 
" style="stroke: #000000; stroke-width: 0.8"/>
      </defs>
      <g>
       <use xlink:href="#mf40864cbf1" x="46.728332" y="221.976" style="stroke: #000000; stroke-width: 0.8"/>
      </g>
     </g>
     <g id="text_1">
      <text style="font-size: 8px; font-family: 'Arial', 'Arimo', 'Liberation Sans', 'Nimbus Sans', sans-serif; text-anchor: middle" x="46.728332" y="234.70225" transform="rotate(-0 46.728332 234.70225)">5</text>
     </g>
    </g>
    <g id="xtick_2">
     <g id="line2d_2">
      <g>
       <use xlink:href="#mf40864cbf1" x="86.72166" y="221.976" style="stroke: #000000; stroke-width: 0.8"/>
      </g>
     </g>
     <g id="text_2">
      <text style="font-size: 8px; font-family: 'Arial', 'Arimo', 'Liberation Sans', 'Nimbus Sans', sans-serif; text-anchor: middle" x="86.72166" y="234.70225" transform="rotate(-0 86.72166 234.70225)">10</text>
     </g>
    </g>
    <g id="xtick_3">
     <g id="line2d_3">
      <g>
       <use xlink:href="#mf40864cbf1" x="126.714987" y="221.976" style="stroke: #000000; stroke-width: 0.8"/>
      </g>
     </g>
     <g id="text_3">
      <text style="font-size: 8px; font-family: 'Arial', 'Arimo', 'Liberation Sans', 'Nimbus Sans', sans-serif; text-anchor: middle" x="126.714987" y="234.70225" transform="rotate(-0 126.714987 234.70225)">15</text>
     </g>
    </g>
    <g id="xtick_4">
     <g id="line2d_4">
      <g>
       <use xlink:href="#mf40864cbf1" x="166.708315" y="221.976" style="stroke: #000000; stroke-width: 0.8"/>
      </g>
     </g>
     <g id="text_4">
      <text style="font-size: 8px; font-family: 'Arial', 'Arimo', 'Liberation Sans', 'Nimbus Sans', sans-serif; text-anchor: middle" x="166.708315" y="234.70225" transform="rotate(-0 166.708315 234.70225)">20</text>
     </g>
    </g>
    <g id="xtick_5">
     <g id="line2d_5">
      <g>
       <use xlink:href="#mf40864cbf1" x="246.694971" y="221.976" style="stroke: #000000; stroke-width: 0.8"/>
      </g>
     </g>
     <g id="text_5">
      <text style="font-size: 8px; font-family: 'Arial', 'Arimo', 'Liberation Sans', 'Nimbus Sans', sans-serif; text-anchor: middle" x="246.694971" y="234.70225" transform="rotate(-0 246.694971 234.70225)">30</text>
     </g>
    </g>
    <g id="text_6">
     <text style="font-size: 8px; font-family: 'Arial', 'Arimo', 'Liberation Sans', 'Nimbus Sans', sans-serif; text-anchor: middle" x="146.711651" y="246.0185" transform="rotate(-0 146.711651 246.0185)">Number of SCL-90 items</text>
    </g>
   </g>
   <g id="matplotlib.axis_2">
    <g id="ytick_1">
     <g id="line2d_6">
      <defs>
       <path id="m6fde3fabbb" d="M 0 0 
L -3.5 0 
" style="stroke: #000000; stroke-width: 0.8"/>
      </defs>
      <g>
       <use xlink:href="#m6fde3fabbb" x="36.73" y="205.176" style="stroke: #000000; stroke-width: 0.8"/>
      </g>
     </g>
     <g id="text_7">
      <text style="font-size: 8px; font-family: 'Arial', 'Arimo', 'Liberation Sans', 'Nimbus Sans', sans-serif; text-anchor: end" x="29.73" y="208.039125" transform="rotate(-0 29.73 208.039125)">0.5</text>
     </g>
    </g>
    <g id="ytick_2">
     <g id="line2d_7">
      <g>
       <use xlink:href="#m6fde3fabbb" x="36.73" y="171.576" style="stroke: #000000; stroke-width: 0.8"/>
      </g>
     </g>
     <g id="text_8">
      <text style="font-size: 8px; font-family: 'Arial', 'Arimo', 'Liberation Sans', 'Nimbus Sans', sans-serif; text-anchor: end" x="29.73" y="174.439125" transform="rotate(-0 29.73 174.439125)">0.6</text>
     </g>
    </g>
    <g id="ytick_3">
     <g id="line2d_8">
      <g>
       <use xlink:href="#m6fde3fabbb" x="36.73" y="137.976" style="stroke: #000000; stroke-width: 0.8"/>
      </g>
     </g>
     <g id="text_9">
      <text style="font-size: 8px; font-family: 'Arial', 'Arimo', 'Liberation Sans', 'Nimbus Sans', sans-serif; text-anchor: end" x="29.73" y="140.839125" transform="rotate(-0 29.73 140.839125)">0.7</text>
     </g>
    </g>
    <g id="ytick_4">
     <g id="line2d_9">
      <g>
       <use xlink:href="#m6fde3fabbb" x="36.73" y="104.376" style="stroke: #000000; stroke-width: 0.8"/>
      </g>
     </g>
     <g id="text_10">
      <text style="font-size: 8px; font-family: 'Arial', 'Arimo', 'Liberation Sans', 'Nimbus Sans', sans-serif; text-anchor: end" x="29.73" y="107.239125" transform="rotate(-0 29.73 107.239125)">0.8</text>
     </g>
    </g>
    <g id="ytick_5">
     <g id="line2d_10">
      <g>
       <use xlink:href="#m6fde3fabbb" x="36.73" y="70.776" style="stroke: #000000; stroke-width: 0.8"/>
      </g>
     </g>
     <g id="text_11">
      <text style="font-size: 8px; font-family: 'Arial', 'Arimo', 'Liberation Sans', 'Nimbus Sans', sans-serif; text-anchor: end" x="29.73" y="73.639125" transform="rotate(-0 29.73 73.639125)">0.9</text>
     </g>
    </g>
    <g id="ytick_6">
     <g id="line2d_11">
      <g>
       <use xlink:href="#m6fde3fabbb" x="36.73" y="37.176" style="stroke: #000000; stroke-width: 0.8"/>
      </g>
     </g>
     <g id="text_12">
      <text style="font-size: 8px; font-family: 'Arial', 'Arimo', 'Liberation Sans', 'Nimbus Sans', sans-serif; text-anchor: end" x="29.73" y="40.039125" transform="rotate(-0 29.73 40.039125)">1.0</text>
     </g>
    </g>
    <g id="text_13">
     <text style="font-size: 8px; font-family: 'Arial', 'Arimo', 'Liberation Sans', 'Nimbus Sans', sans-serif; text-anchor: middle" x="12.92625" y="126.216" transform="rotate(-90 12.92625 126.216)">Higher-is-better metric</text>
    </g>
   </g>
   <g id="line2d_12">
    <path d="M 46.728332 50.700068 
L 86.72166 44.365729 
L 126.714987 41.21979 
L 166.708315 40.110308 
L 246.694971 38.174306 
" clip-path="url(#p9749188889)" style="fill: none; stroke: #1f77b4; stroke-width: 1.5; stroke-linecap: square"/>
    <defs>
     <path id="m0cb7cd285a" d="M 0 3 
C 0.795609 3 1.55874 2.683901 2.12132 2.12132 
C 2.683901 1.55874 3 0.795609 3 0 
C 3 -0.795609 2.683901 -1.55874 2.12132 -2.12132 
C 1.55874 -2.683901 0.795609 -3 0 -3 
C -0.795609 -3 -1.55874 -2.683901 -2.12132 -2.12132 
C -2.683901 -1.55874 -3 -0.795609 -3 0 
C -3 0.795609 -2.683901 1.55874 -2.12132 2.12132 
C -1.55874 2.683901 -0.795609 3 0 3 
z
" style="stroke: #1f77b4"/>
    </defs>
    <g clip-path="url(#p9749188889)">
     <use xlink:href="#m0cb7cd285a" x="46.728332" y="50.700068" style="fill: #1f77b4; stroke: #1f77b4"/>
     <use xlink:href="#m0cb7cd285a" x="86.72166" y="44.365729" style="fill: #1f77b4; stroke: #1f77b4"/>
     <use xlink:href="#m0cb7cd285a" x="126.714987" y="41.21979" style="fill: #1f77b4; stroke: #1f77b4"/>
     <use xlink:href="#m0cb7cd285a" x="166.708315" y="40.110308" style="fill: #1f77b4; stroke: #1f77b4"/>
     <use xlink:href="#m0cb7cd285a" x="246.694971" y="38.174306" style="fill: #1f77b4; stroke: #1f77b4"/>
    </g>
   </g>
   <g id="line2d_13">
    <path d="M 46.728332 83.842984 
L 86.72166 64.171875 
L 126.714987 54.200967 
L 166.708315 49.157908 
L 246.694971 41.312735 
" clip-path="url(#p9749188889)" style="fill: none; stroke: #ff7f0e; stroke-width: 1.5; stroke-linecap: square"/>
    <defs>
     <path id="m230c7765e2" d="M 0 3 
C 0.795609 3 1.55874 2.683901 2.12132 2.12132 
C 2.683901 1.55874 3 0.795609 3 0 
C 3 -0.795609 2.683901 -1.55874 2.12132 -2.12132 
C 1.55874 -2.683901 0.795609 -3 0 -3 
C -0.795609 -3 -1.55874 -2.683901 -2.12132 -2.12132 
C -2.683901 -1.55874 -3 -0.795609 -3 0 
C -3 0.795609 -2.683901 1.55874 -2.12132 2.12132 
C -1.55874 2.683901 -0.795609 3 0 3 
z
" style="stroke: #ff7f0e"/>
    </defs>
    <g clip-path="url(#p9749188889)">
     <use xlink:href="#m230c7765e2" x="46.728332" y="83.842984" style="fill: #ff7f0e; stroke: #ff7f0e"/>
     <use xlink:href="#m230c7765e2" x="86.72166" y="64.171875" style="fill: #ff7f0e; stroke: #ff7f0e"/>
     <use xlink:href="#m230c7765e2" x="126.714987" y="54.200967" style="fill: #ff7f0e; stroke: #ff7f0e"/>
     <use xlink:href="#m230c7765e2" x="166.708315" y="49.157908" style="fill: #ff7f0e; stroke: #ff7f0e"/>
     <use xlink:href="#m230c7765e2" x="246.694971" y="41.312735" style="fill: #ff7f0e; stroke: #ff7f0e"/>
    </g>
   </g>
   <g id="line2d_14">
    <path d="M 46.728332 214.522648 
L 86.72166 208.291549 
L 126.714987 205.894973 
L 166.708315 204.457027 
L 246.694971 203.977712 
" clip-path="url(#p9749188889)" style="fill: none; stroke: #2ca02c; stroke-width: 1.5; stroke-linecap: square"/>
    <defs>
     <path id="m2bd0f0371f" d="M 0 3 
C 0.795609 3 1.55874 2.683901 2.12132 2.12132 
C 2.683901 1.55874 3 0.795609 3 0 
C 3 -0.795609 2.683901 -1.55874 2.12132 -2.12132 
C 1.55874 -2.683901 0.795609 -3 0 -3 
C -0.795609 -3 -1.55874 -2.683901 -2.12132 -2.12132 
C -2.683901 -1.55874 -3 -0.795609 -3 0 
C -3 0.795609 -2.683901 1.55874 -2.12132 2.12132 
C -1.55874 2.683901 -0.795609 3 0 3 
z
" style="stroke: #2ca02c"/>
    </defs>
    <g clip-path="url(#p9749188889)">
     <use xlink:href="#m2bd0f0371f" x="46.728332" y="214.522648" style="fill: #2ca02c; stroke: #2ca02c"/>
     <use xlink:href="#m2bd0f0371f" x="86.72166" y="208.291549" style="fill: #2ca02c; stroke: #2ca02c"/>
     <use xlink:href="#m2bd0f0371f" x="126.714987" y="205.894973" style="fill: #2ca02c; stroke: #2ca02c"/>
     <use xlink:href="#m2bd0f0371f" x="166.708315" y="204.457027" style="fill: #2ca02c; stroke: #2ca02c"/>
     <use xlink:href="#m2bd0f0371f" x="246.694971" y="203.977712" style="fill: #2ca02c; stroke: #2ca02c"/>
    </g>
   </g>
   <g id="patch_3">
    <path d="M 36.73 221.976 
L 36.73 30.456 
" style="fill: none; stroke: #000000; stroke-width: 0.8; stroke-linejoin: miter; stroke-linecap: square"/>
   </g>
   <g id="patch_4">
    <path d="M 36.73 221.976 
L 256.693303 221.976 
" style="fill: none; stroke: #000000; stroke-width: 0.8; stroke-linejoin: miter; stroke-linecap: square"/>
   </g>
   <g id="legend_1">
    <g id="line2d_15">
     <path d="M 181.299553 114.156 
L 189.299553 114.156 
L 197.299553 114.156 
" style="fill: none; stroke: #1f77b4; stroke-width: 1.5; stroke-linecap: square"/>
     <g>
      <use xlink:href="#m0cb7cd285a" x="189.299553" y="114.156" style="fill: #1f77b4; stroke: #1f77b4"/>
     </g>
    </g>
    <g id="text_14">
     <text style="font-size: 8px; font-family: 'Arial', 'Arimo', 'Liberation Sans', 'Nimbus Sans', sans-serif; text-anchor: start" x="203.699553" y="116.956" transform="rotate(-0 203.699553 116.956)">ROC-AUC</text>
    </g>
    <g id="line2d_16">
     <path d="M 181.299553 125.47225 
L 189.299553 125.47225 
L 197.299553 125.47225 
" style="fill: none; stroke: #ff7f0e; stroke-width: 1.5; stroke-linecap: square"/>
     <g>
      <use xlink:href="#m230c7765e2" x="189.299553" y="125.47225" style="fill: #ff7f0e; stroke: #ff7f0e"/>
     </g>
    </g>
    <g id="text_15">
     <text style="font-size: 8px; font-family: 'Arial', 'Arimo', 'Liberation Sans', 'Nimbus Sans', sans-serif; text-anchor: start" x="203.699553" y="128.27225" transform="rotate(-0 203.699553 128.27225)">PR-AUC</text>
    </g>
    <g id="line2d_17">
     <path d="M 181.299553 136.81225 
L 189.299553 136.81225 
L 197.299553 136.81225 
" style="fill: none; stroke: #2ca02c; stroke-width: 1.5; stroke-linecap: square"/>
     <g>
      <use xlink:href="#m2bd0f0371f" x="189.299553" y="136.81225" style="fill: #2ca02c; stroke: #2ca02c"/>
     </g>
    </g>
    <g id="text_16">
     <text style="font-size: 8px; font-family: 'Arial', 'Arimo', 'Liberation Sans', 'Nimbus Sans', sans-serif; text-anchor: start" x="203.699553" y="139.61225" transform="rotate(-0 203.699553 139.61225)">Top-10 recall</text>
    </g>
   </g>
  </g>
  <g id="axes_2">
   <g id="patch_5">
    <path d="M 296.286697 221.976 
L 516.25 221.976 
L 516.25 30.456 
L 296.286697 30.456 
z
" style="fill: #ffffff"/>
   </g>
   <g id="matplotlib.axis_3">
    <g id="xtick_6">
     <g id="line2d_18">
      <g>
       <use xlink:href="#mf40864cbf1" x="306.285029" y="221.976" style="stroke: #000000; stroke-width: 0.8"/>
      </g>
     </g>
     <g id="text_17">
      <text style="font-size: 8px; font-family: 'Arial', 'Arimo', 'Liberation Sans', 'Nimbus Sans', sans-serif; text-anchor: middle" x="306.285029" y="234.70225" transform="rotate(-0 306.285029 234.70225)">5</text>
     </g>
    </g>
    <g id="xtick_7">
     <g id="line2d_19">
      <g>
       <use xlink:href="#mf40864cbf1" x="346.278357" y="221.976" style="stroke: #000000; stroke-width: 0.8"/>
      </g>
     </g>
     <g id="text_18">
      <text style="font-size: 8px; font-family: 'Arial', 'Arimo', 'Liberation Sans', 'Nimbus Sans', sans-serif; text-anchor: middle" x="346.278357" y="234.70225" transform="rotate(-0 346.278357 234.70225)">10</text>
     </g>
    </g>
    <g id="xtick_8">
     <g id="line2d_20">
      <g>
       <use xlink:href="#mf40864cbf1" x="386.271685" y="221.976" style="stroke: #000000; stroke-width: 0.8"/>
      </g>
     </g>
     <g id="text_19">
      <text style="font-size: 8px; font-family: 'Arial', 'Arimo', 'Liberation Sans', 'Nimbus Sans', sans-serif; text-anchor: middle" x="386.271685" y="234.70225" transform="rotate(-0 386.271685 234.70225)">15</text>
     </g>
    </g>
    <g id="xtick_9">
     <g id="line2d_21">
      <g>
       <use xlink:href="#mf40864cbf1" x="426.265013" y="221.976" style="stroke: #000000; stroke-width: 0.8"/>
      </g>
     </g>
     <g id="text_20">
      <text style="font-size: 8px; font-family: 'Arial', 'Arimo', 'Liberation Sans', 'Nimbus Sans', sans-serif; text-anchor: middle" x="426.265013" y="234.70225" transform="rotate(-0 426.265013 234.70225)">20</text>
     </g>
    </g>
    <g id="xtick_10">
     <g id="line2d_22">
      <g>
       <use xlink:href="#mf40864cbf1" x="506.251668" y="221.976" style="stroke: #000000; stroke-width: 0.8"/>
      </g>
     </g>
     <g id="text_21">
      <text style="font-size: 8px; font-family: 'Arial', 'Arimo', 'Liberation Sans', 'Nimbus Sans', sans-serif; text-anchor: middle" x="506.251668" y="234.70225" transform="rotate(-0 506.251668 234.70225)">30</text>
     </g>
    </g>
    <g id="text_22">
     <text style="font-size: 8px; font-family: 'Arial', 'Arimo', 'Liberation Sans', 'Nimbus Sans', sans-serif; text-anchor: middle" x="406.268349" y="246.0185" transform="rotate(-0 406.268349 246.0185)">Number of SCL-90 items</text>
    </g>
   </g>
   <g id="matplotlib.axis_4">
    <g id="ytick_7">
     <g id="line2d_23">
      <g>
       <use xlink:href="#m6fde3fabbb" x="296.286697" y="200.031802" style="stroke: #000000; stroke-width: 0.8"/>
      </g>
     </g>
     <g id="text_23">
      <text style="font-size: 8px; font-family: 'Arial', 'Arimo', 'Liberation Sans', 'Nimbus Sans', sans-serif; text-anchor: end" x="289.286697" y="202.894927" transform="rotate(-0 289.286697 202.894927)">0.02</text>
     </g>
    </g>
    <g id="ytick_8">
     <g id="line2d_24">
      <g>
       <use xlink:href="#m6fde3fabbb" x="296.286697" y="163.253293" style="stroke: #000000; stroke-width: 0.8"/>
      </g>
     </g>
     <g id="text_24">
      <text style="font-size: 8px; font-family: 'Arial', 'Arimo', 'Liberation Sans', 'Nimbus Sans', sans-serif; text-anchor: end" x="289.286697" y="166.116418" transform="rotate(-0 289.286697 166.116418)">0.03</text>
     </g>
    </g>
    <g id="ytick_9">
     <g id="line2d_25">
      <g>
       <use xlink:href="#m6fde3fabbb" x="296.286697" y="126.474785" style="stroke: #000000; stroke-width: 0.8"/>
      </g>
     </g>
     <g id="text_25">
      <text style="font-size: 8px; font-family: 'Arial', 'Arimo', 'Liberation Sans', 'Nimbus Sans', sans-serif; text-anchor: end" x="289.286697" y="129.33791" transform="rotate(-0 289.286697 129.33791)">0.04</text>
     </g>
    </g>
    <g id="ytick_10">
     <g id="line2d_26">
      <g>
       <use xlink:href="#m6fde3fabbb" x="296.286697" y="89.696276" style="stroke: #000000; stroke-width: 0.8"/>
      </g>
     </g>
     <g id="text_26">
      <text style="font-size: 8px; font-family: 'Arial', 'Arimo', 'Liberation Sans', 'Nimbus Sans', sans-serif; text-anchor: end" x="289.286697" y="92.559401" transform="rotate(-0 289.286697 92.559401)">0.05</text>
     </g>
    </g>
    <g id="ytick_11">
     <g id="line2d_27">
      <g>
       <use xlink:href="#m6fde3fabbb" x="296.286697" y="52.917768" style="stroke: #000000; stroke-width: 0.8"/>
      </g>
     </g>
     <g id="text_27">
      <text style="font-size: 8px; font-family: 'Arial', 'Arimo', 'Liberation Sans', 'Nimbus Sans', sans-serif; text-anchor: end" x="289.286697" y="55.780893" transform="rotate(-0 289.286697 55.780893)">0.06</text>
     </g>
    </g>
    <g id="text_28">
     <text style="font-size: 8px; font-family: 'Arial', 'Arimo', 'Liberation Sans', 'Nimbus Sans', sans-serif; text-anchor: middle" x="268.034197" y="126.216" transform="rotate(-90 268.034197 126.216)">Brier score (lower is better)</text>
    </g>
   </g>
   <g id="line2d_28">
    <path d="M 306.285029 39.161455 
L 346.278357 94.359664 
L 386.271685 126.162424 
L 426.265013 157.574326 
L 506.251668 213.270545 
" clip-path="url(#p0e47fe881f)" style="fill: none; stroke: #1f77b4; stroke-width: 1.5; stroke-linecap: square"/>
    <g clip-path="url(#p0e47fe881f)">
     <use xlink:href="#m0cb7cd285a" x="306.285029" y="39.161455" style="fill: #1f77b4; stroke: #1f77b4"/>
     <use xlink:href="#m0cb7cd285a" x="346.278357" y="94.359664" style="fill: #1f77b4; stroke: #1f77b4"/>
     <use xlink:href="#m0cb7cd285a" x="386.271685" y="126.162424" style="fill: #1f77b4; stroke: #1f77b4"/>
     <use xlink:href="#m0cb7cd285a" x="426.265013" y="157.574326" style="fill: #1f77b4; stroke: #1f77b4"/>
     <use xlink:href="#m0cb7cd285a" x="506.251668" y="213.270545" style="fill: #1f77b4; stroke: #1f77b4"/>
    </g>
   </g>
   <g id="patch_6">
    <path d="M 296.286697 221.976 
L 296.286697 30.456 
" style="fill: none; stroke: #000000; stroke-width: 0.8; stroke-linejoin: miter; stroke-linecap: square"/>
   </g>
   <g id="patch_7">
    <path d="M 296.286697 221.976 
L 516.25 221.976 
" style="fill: none; stroke: #000000; stroke-width: 0.8; stroke-linejoin: miter; stroke-linecap: square"/>
   </g>
  </g>
  <g id="text_29">
   <text style="font-weight: 700; font-size: 8px; font-family: 'Arial', 'Arimo', 'Liberation Sans', 'Nimbus Sans', sans-serif; text-anchor: start" x="7.426" y="12.92625" transform="rotate(-0 7.426 12.92625)">a</text>
  </g>
  <g id="text_30">
   <text style="font-weight: 700; font-size: 8px; font-family: 'Arial', 'Arimo', 'Liberation Sans', 'Nimbus Sans', sans-serif; text-anchor: start" x="271.162" y="12.92625" transform="rotate(-0 271.162 12.92625)">b</text>
  </g>
 </g>
 <defs>
  <clipPath id="p9749188889">
   <rect x="36.73" y="30.456" width="219.963303" height="191.52"/>
  </clipPath>
  <clipPath id="p0e47fe881f">
   <rect x="296.286697" y="30.456" width="219.963303" height="191.52"/>
  </clipPath>
 </defs>
</svg>
