<?xml version="1.0" encoding="utf-8" standalone="no"?>
<!DOCTYPE svg PUBLIC "-//W3C//DTD SVG 1.1//EN"
  "http://www.w3.org/Graphics/SVG/1.1/DTD/svg11.dtd">
<svg xmlns:xlink="http://www.w3.org/1999/xlink" width="436.70125pt" height="379.00875pt" viewBox="0 0 436.70125 379.00875" xmlns="http://www.w3.org/2000/svg" version="1.1">
 <metadata>
  <rdf:RDF xmlns:dc="http://purl.org/dc/elements/1.1/" xmlns:cc="http://creativecommons.org/ns#" xmlns:rdf="http://www.w3.org/1999/02/22-rdf-syntax-ns#">
   <cc:Work>
    <dc:type rdf:resource="http://purl.org/dc/dcmitype/StillImage"/>
    <dc:format>image/svg+xml</dc:format>
    <dc:creator>
     <cc:Agent>
      <dc:title>Matplotlib v3.10.8, https://matplotlib.org/</dc:title>
     </cc:Agent>
    </dc:creator>
   </cc:Work>
  </rdf:RDF>
 </metadata>
 <defs>
  <style type="text/css">*{stroke-linejoin: round; stroke-linecap: butt}</style>
 </defs>
 <g id="figure_1">
  <g id="patch_1">
   <path d="M 0 379.00875 
L 436.70125 379.00875 
L 436.70125 0 
L 0 0 
z
" style="fill: #ffffff"/>
  </g>
  <g id="axes_1">
   <g id="patch_2">
    <path d="M 36.73875 346.0825 
L 429.50125 346.0825 
L 429.50125 7.2 
L 36.73875 7.2 
z
" style="fill: #ffffff"/>
   </g>
   <g id="matplotlib.axis_1">
    <g id="xtick_1">
     <g id="line2d_1">
      <defs>
       <path id="mf40864cbf1" d="M 0 0 
L 0 3.5 
" style="stroke: #000000; stroke-width: 0.8"/>
      </defs>
      <g>
       <use xlink:href="#mf40864cbf1" x="36.73875" y="346.0825" style="stroke: #000000; stroke-width: 0.8"/>
      </g>
     </g>
     <g id="text_1">
      <text style="font-size: 8px; font-family: 'Arial', 'Arimo', 'Liberation Sans', 'Nimbus Sans', sans-serif; text-anchor: middle" x="36.73875" y="358.80875" transform="rotate(-0 36.73875 358.80875)">0.0</text>
     </g>
    </g>
    <g id="xtick_2">
     <g id="line2d_2">
      <g>
       <use xlink:href="#mf40864cbf1" x="113.751005" y="346.0825" style="stroke: #000000; stroke-width: 0.8"/>
      </g>
     </g>
     <g id="text_2">
      <text style="font-size: 8px; font-family: 'Arial', 'Arimo', 'Liberation Sans', 'Nimbus Sans', sans-serif; text-anchor: middle" x="113.751005" y="358.80875" transform="rotate(-0 113.751005 358.80875)">0.2</text>
     </g>
    </g>
    <g id="xtick_3">
     <g id="line2d_3">
      <g>
       <use xlink:href="#mf40864cbf1" x="190.76326" y="346.0825" style="stroke: #000000; stroke-width: 0.8"/>
      </g>
     </g>
     <g id="text_3">
      <text style="font-size: 8px; font-family: 'Arial', 'Arimo', 'Liberation Sans', 'Nimbus Sans', sans-serif; text-anchor: middle" x="190.76326" y="358.80875" transform="rotate(-0 190.76326 358.80875)">0.4</text>
     </g>
    </g>
    <g id="xtick_4">
     <g id="line2d_4">
      <g>
       <use xlink:href="#mf40864cbf1" x="267.775515" y="346.0825" style="stroke: #000000; stroke-width: 0.8"/>
      </g>
     </g>
     <g id="text_4">
      <text style="font-size: 8px; font-family: 'Arial', 'Arimo', 'Liberation Sans', 'Nimbus Sans', sans-serif; text-anchor: middle" x="267.775515" y="358.80875" transform="rotate(-0 267.775515 358.80875)">0.6</text>
     </g>
    </g>
    <g id="xtick_5">
     <g id="line2d_5">
      <g>
       <use xlink:href="#mf40864cbf1" x="344.78777" y="346.0825" style="stroke: #000000; stroke-width: 0.8"/>
      </g>
     </g>
     <g id="text_5">
      <text style="font-size: 8px; font-family: 'Arial', 'Arimo', 'Liberation Sans', 'Nimbus Sans', sans-serif; text-anchor: middle" x="344.78777" y="358.80875" transform="rotate(-0 344.78777 358.80875)">0.8</text>
     </g>
    </g>
    <g id="xtick_6">
     <g id="line2d_6">
      <g>
       <use xlink:href="#mf40864cbf1" x="421.800025" y="346.0825" style="stroke: #000000; stroke-width: 0.8"/>
      </g>
     </g>
     <g id="text_6">
      <text style="font-size: 8px; font-family: 'Arial', 'Arimo', 'Liberation Sans', 'Nimbus Sans', sans-serif; text-anchor: middle" x="421.800025" y="358.80875" transform="rotate(-0 421.800025 358.80875)">1.0</text>
     </g>
    </g>
    <g id="text_7">
     <text style="font-size: 8px; font-family: 'Arial', 'Arimo', 'Liberation Sans', 'Nimbus Sans', sans-serif; text-anchor: middle" x="233.12" y="370.125" transform="rotate(-0 233.12 370.125)">Mean predicted probability</text>
    </g>
   </g>
   <g id="matplotlib.axis_2">
    <g id="ytick_1">
     <g id="line2d_7">
      <defs>
       <path id="m6fde3fabbb" d="M 0 0 
L -3.5 0 
" style="stroke: #000000; stroke-width: 0.8"/>
      </defs>
      <g>
       <use xlink:href="#m6fde3fabbb" x="36.73875" y="346.0825" style="stroke: #000000; stroke-width: 0.8"/>
      </g>
     </g>
     <g id="text_8">
      <text style="font-size: 8px; font-family: 'Arial', 'Arimo', 'Liberation Sans', 'Nimbus Sans', sans-serif; text-anchor: end" x="29.73875" y="348.945625" transform="rotate(-0 29.73875 348.945625)">0.0</text>
     </g>
    </g>
    <g id="ytick_2">
     <g id="line2d_8">
      <g>
       <use xlink:href="#m6fde3fabbb" x="36.73875" y="279.634951" style="stroke: #000000; stroke-width: 0.8"/>
      </g>
     </g>
     <g id="text_9">
      <text style="font-size: 8px; font-family: 'Arial', 'Arimo', 'Liberation Sans', 'Nimbus Sans', sans-serif; text-anchor: end" x="29.73875" y="282.498076" transform="rotate(-0 29.73875 282.498076)">0.2</text>
     </g>
    </g>
    <g id="ytick_3">
     <g id="line2d_9">
      <g>
       <use xlink:href="#m6fde3fabbb" x="36.73875" y="213.187402" style="stroke: #000000; stroke-width: 0.8"/>
      </g>
     </g>
     <g id="text_10">
      <text style="font-size: 8px; font-family: 'Arial', 'Arimo', 'Liberation Sans', 'Nimbus Sans', sans-serif; text-anchor: end" x="29.73875" y="216.050527" transform="rotate(-0 29.73875 216.050527)">0.4</text>
     </g>
    </g>
    <g id="ytick_4">
     <g id="line2d_10">
      <g>
       <use xlink:href="#m6fde3fabbb" x="36.73875" y="146.739853" style="stroke: #000000; stroke-width: 0.8"/>
      </g>
     </g>
     <g id="text_11">
      <text style="font-size: 8px; font-family: 'Arial', 'Arimo', 'Liberation Sans', 'Nimbus Sans', sans-serif; text-anchor: end" x="29.73875" y="149.602978" transform="rotate(-0 29.73875 149.602978)">0.6</text>
     </g>
    </g>
    <g id="ytick_5">
     <g id="line2d_11">
      <g>
       <use xlink:href="#m6fde3fabbb" x="36.73875" y="80.292304" style="stroke: #000000; stroke-width: 0.8"/>
      </g>
     </g>
     <g id="text_12">
      <text style="font-size: 8px; font-family: 'Arial', 'Arimo', 'Liberation Sans', 'Nimbus Sans', sans-serif; text-anchor: end" x="29.73875" y="83.155429" transform="rotate(-0 29.73875 83.155429)">0.8</text>
     </g>
    </g>
    <g id="ytick_6">
     <g id="line2d_12">
      <g>
       <use xlink:href="#m6fde3fabbb" x="36.73875" y="13.844755" style="stroke: #000000; stroke-width: 0.8"/>
      </g>
     </g>
     <g id="text_13">
      <text style="font-size: 8px; font-family: 'Arial', 'Arimo', 'Liberation Sans', 'Nimbus Sans', sans-serif; text-anchor: end" x="29.73875" y="16.70788" transform="rotate(-0 29.73875 16.70788)">1.0</text>
     </g>
    </g>
    <g id="text_14">
     <text style="font-size: 8px; font-family: 'Arial', 'Arimo', 'Liberation Sans', 'Nimbus Sans', sans-serif; text-anchor: middle" x="13.02875" y="176.64125" transform="rotate(-90 13.02875 176.64125)">Observed screen-positive rate</text>
    </g>
   </g>
   <g id="line2d_13">
    <path d="M 36.73875 346.0825 
L 421.800025 13.844755 
" clip-path="url(#p5c7a9fda12)" style="fill: none; stroke-dasharray: 3.7,1.6; stroke-dashoffset: 0; stroke: #1f77b4"/>
   </g>
   <g id="line2d_14">
    <path d="M 36.819414 346.0825 
L 36.942817 346.0825 
L 37.172624 346.0825 
L 38.19983 346.0825 
L 44.859744 344.205451 
L 96.087995 271.000524 
L 260.01746 92.68083 
L 415.344795 17.598854 
" clip-path="url(#p5c7a9fda12)" style="fill: none; stroke: #ff7f0e; stroke-width: 1.5; stroke-linecap: square"/>
    <defs>
     <path id="m230c7765e2" d="M 0 3 
C 0.795609 3 1.55874 2.683901 2.12132 2.12132 
C 2.683901 1.55874 3 0.795609 3 0 
C 3 -0.795609 2.683901 -1.55874 2.12132 -2.12132 
C 1.55874 -2.683901 0.795609 -3 0 -3 
C -0.795609 -3 -1.55874 -2.683901 -2.12132 -2.12132 
C -2.683901 -1.55874 -3 -0.795609 -3 0 
C -3 0.795609 -2.683901 1.55874 -2.12132 2.12132 
C -1.55874 2.683901 -0.795609 3 0 3 
z
" style="stroke: #ff7f0e"/>
    </defs>
    <g clip-path="url(#p5c7a9fda12)">
     <use xlink:href="#m230c7765e2" x="36.819414" y="346.0825" style="fill: #ff7f0e; stroke: #ff7f0e"/>
     <use xlink:href="#m230c7765e2" x="36.942817" y="346.0825" style="fill: #ff7f0e; stroke: #ff7f0e"/>
     <use xlink:href="#m230c7765e2" x="37.172624" y="346.0825" style="fill: #ff7f0e; stroke: #ff7f0e"/>
     <use xlink:href="#m230c7765e2" x="38.19983" y="346.0825" style="fill: #ff7f0e; stroke: #ff7f0e"/>
     <use xlink:href="#m230c7765e2" x="44.859744" y="344.205451" style="fill: #ff7f0e; stroke: #ff7f0e"/>
     <use xlink:href="#m230c7765e2" x="96.087995" y="271.000524" style="fill: #ff7f0e; stroke: #ff7f0e"/>
     <use xlink:href="#m230c7765e2" x="260.01746" y="92.68083" style="fill: #ff7f0e; stroke: #ff7f0e"/>
     <use xlink:href="#m230c7765e2" x="415.344795" y="17.598854" style="fill: #ff7f0e; stroke: #ff7f0e"/>
    </g>
   </g>
   <g id="line2d_15">
    <path d="M 36.784086 346.0825 
L 36.869353 346.0825 
L 37.048449 346.0825 
L 37.98807 346.0825 
L 45.688929 344.205451 
L 117.367144 271.000524 
L 307.284164 92.68083 
L 419.442966 17.598854 
" clip-path="url(#p5c7a9fda12)" style="fill: none; stroke: #2ca02c; stroke-width: 1.5; stroke-linecap: square"/>
    <defs>
     <path id="m2bd0f0371f" d="M 0 3 
C 0.795609 3 1.55874 2.683901 2.12132 2.12132 
C 2.683901 1.55874 3 0.795609 3 0 
C 3 -0.795609 2.683901 -1.55874 2.12132 -2.12132 
C 1.55874 -2.683901 0.795609 -3 0 -3 
C -0.795609 -3 -1.55874 -2.683901 -2.12132 -2.12132 
C -2.683901 -1.55874 -3 -0.795609 -3 0 
C -3 0.795609 -2.683901 1.55874 -2.12132 2.12132 
C -1.55874 2.683901 -0.795609 3 0 3 
z
" style="stroke: #2ca02c"/>
    </defs>
    <g clip-path="url(#p5c7a9fda12)">
     <use xlink:href="#m2bd0f0371f" x="36.784086" y="346.0825" style="fill: #2ca02c; stroke: #2ca02c"/>
     <use xlink:href="#m2bd0f0371f" x="36.869353" y="346.0825" style="fill: #2ca02c; stroke: #2ca02c"/>
     <use xlink:href="#m2bd0f0371f" x="37.048449" y="346.0825" style="fill: #2ca02c; stroke: #2ca02c"/>
     <use xlink:href="#m2bd0f0371f" x="37.98807" y="346.0825" style="fill: #2ca02c; stroke: #2ca02c"/>
     <use xlink:href="#m2bd0f0371f" x="45.688929" y="344.205451" style="fill: #2ca02c; stroke: #2ca02c"/>
     <use xlink:href="#m2bd0f0371f" x="117.367144" y="271.000524" style="fill: #2ca02c; stroke: #2ca02c"/>
     <use xlink:href="#m2bd0f0371f" x="307.284164" y="92.68083" style="fill: #2ca02c; stroke: #2ca02c"/>
     <use xlink:href="#m2bd0f0371f" x="419.442966" y="17.598854" style="fill: #2ca02c; stroke: #2ca02c"/>
    </g>
   </g>
   <g id="patch_3">
    <path d="M 36.73875 346.0825 
L 36.73875 7.2 
" style="fill: none; stroke: #000000; stroke-width: 0.8; stroke-linejoin: miter; stroke-linecap: square"/>
   </g>
   <g id="patch_4">
    <path d="M 36.73875 346.0825 
L 429.50125 346.0825 
" style="fill: none; stroke: #000000; stroke-width: 0.8; stroke-linejoin: miter; stroke-linecap: square"/>
   </g>
   <g id="legend_1">
    <g id="line2d_16">
     <path d="M 43.93875 17.32625 
L 51.93875 17.32625 
L 59.93875 17.32625 
" style="fill: none; stroke-dasharray: 3.7,1.6; stroke-dashoffset: 0; stroke: #1f77b4"/>
    </g>
    <g id="text_15">
     <text style="font-size: 8px; font-family: 'Arial', 'Arimo', 'Liberation Sans', 'Nimbus Sans', sans-serif; text-anchor: start" x="66.33875" y="20.12625" transform="rotate(-0 66.33875 20.12625)">Ideal calibration</text>
    </g>
    <g id="line2d_17">
     <path d="M 43.93875 28.745 
L 51.93875 28.745 
L 59.93875 28.745 
" style="fill: none; stroke: #ff7f0e; stroke-width: 1.5; stroke-linecap: square"/>
     <g>
      <use xlink:href="#m230c7765e2" x="51.93875" y="28.745" style="fill: #ff7f0e; stroke: #ff7f0e"/>
     </g>
    </g>
    <g id="text_16">
     <text style="font-size: 8px; font-family: 'Arial', 'Arimo', 'Liberation Sans', 'Nimbus Sans', sans-serif; text-anchor: start" x="66.33875" y="31.545" transform="rotate(-0 66.33875 31.545)">Original weighted model</text>
    </g>
    <g id="line2d_18">
     <path d="M 43.93875 40.2525 
L 51.93875 40.2525 
L 59.93875 40.2525 
" style="fill: none; stroke: #2ca02c; stroke-width: 1.5; stroke-linecap: square"/>
     <g>
      <use xlink:href="#m2bd0f0371f" x="51.93875" y="40.2525" style="fill: #2ca02c; stroke: #2ca02c"/>
     </g>
    </g>
    <g id="text_17">
     <text style="font-size: 8px; font-family: 'Arial', 'Arimo', 'Liberation Sans', 'Nimbus Sans', sans-serif; text-anchor: start" x="66.33875" y="43.0525" transform="rotate(-0 66.33875 43.0525)">Slope+intercept recalibrated model</text>
    </g>
   </g>
  </g>
 </g>
 <defs>
  <clipPath id="p5c7a9fda12">
   <rect x="36.73875" y="7.2" width="392.7625" height="338.8825"/>
  </clipPath>
 </defs>
</svg>
